<?xml version="1.0" standalone="no"?>
<!DOCTYPE svg PUBLIC "-//W3C//DTD SVG 20010904//EN"
 "http://www.w3.org/TR/2001/REC-SVG-20010904/DTD/svg10.dtd">
<svg version="1.0" xmlns="http://www.w3.org/2000/svg"
 width="2781.000000pt" height="2781.000000pt" viewBox="0 0 2781.000000 2781.000000"
 preserveAspectRatio="xMidYMid meet">
<metadata>
Created by potrace 1.11, written by Peter Selinger 2001-2013
</metadata>
<g transform="translate(0.000000,2781.000000) scale(0.100000,-0.100000)"
fill="#000000" stroke="none">
<path d="M13460 27804 c-398 -16 -735 -41 -1085 -80 -3646 -402 -6995 -2237
-9296 -5094 -1739 -2158 -2797 -4794 -3028 -7550 -38 -449 -45 -639 -45 -1175
0 -536 7 -726 45 -1175 301 -3581 1990 -6920 4698 -9289 2048 -1791 4569
-2940 7266 -3310 673 -93 1162 -125 1885 -126 523 0 735 8 1180 46 3535 296
6842 1950 9206 4604 1932 2170 3128 4867 3444 7765 56 519 74 881 74 1485 0
505 -7 707 -39 1115 -191 2387 -1006 4705 -2353 6690 -2049 3020 -5203 5114
-8782 5830 -639 128 -1254 206 -1970 250 -165 11 -1040 20 -1200 14z m2126
-6624 c638 -50 1201 -309 1648 -756 207 -209 359 -419 490 -684 161 -325 246
-647 265 -1010 42 -775 -232 -1478 -783 -2007 -394 -379 -883 -617 -1441 -700
-171 -25 -563 -25 -730 1 -152 23 -392 83 -521 131 -139 51 -379 171 -504 250
-491 313 -872 795 -1060 1340 -93 271 -130 476 -137 771 -6 236 4 376 43 578
77 395 259 789 514 1111 133 169 368 390 550 517 477 335 1089 503 1666 458z
m-5126 -815 c819 -126 1497 -692 1750 -1463 88 -269 115 -458 107 -756 -7
-279 -49 -494 -142 -733 -281 -717 -899 -1235 -1645 -1377 -215 -41 -517 -46
-734 -11 -774 120 -1422 638 -1710 1365 -163 411 -194 904 -86 1336 225 899
989 1558 1915 1654 123 12 417 4 545 -15z m6988 -4631 c42 -9 100 -25 127 -37
182 -76 335 -240 401 -428 l29 -84 3 -2680 c3 -2993 8 -2751 -68 -2910 -90
-186 -258 -325 -458 -376 -74 -19 -158 -19 -4517 -19 -4388 0 -4443 0 -4519
20 -198 50 -360 183 -456 372 -77 153 -71 -92 -68 2913 l3 2690 23 65 c47 130
120 237 223 325 71 61 216 132 304 149 59 12 782 14 4483 15 3993 1 4420 -1
4490 -15z m2784 -604 c127 -48 230 -155 268 -277 20 -64 20 -89 20 -2387 0
-1934 -3 -2330 -14 -2372 -65 -244 -334 -383 -567 -294 -39 14 -1430 970
-1561 1073 l-38 29 0 1564 0 1563 53 39 c80 60 1463 1020 1500 1042 88 52 232
61 339 20z m-5631 -6240 c357 -110 467 -587 199 -861 -67 -68 -176 -124 -270
-139 -91 -14 -3062 -14 -3150 1 -176 28 -329 161 -391 339 -30 86 -33 239 -5
320 56 165 180 291 336 341 52 17 154 18 1636 18 1545 1 1583 1 1645 -19z"/>
<path d="M15295 19854 c-299 -33 -557 -155 -770 -367 -267 -265 -401 -628
-365 -984 32 -309 146 -551 364 -769 245 -244 537 -367 876 -368 331 0 619
117 861 351 191 185 308 396 365 658 24 110 24 360 0 470 -110 511 -479 884
-973 984 -98 20 -282 33 -358 25z"/>
<path d="M9995 19100 c-217 -35 -432 -158 -565 -325 -72 -91 -143 -231 -171
-340 -28 -105 -31 -326 -6 -428 83 -334 335 -588 664 -669 111 -27 304 -29
405 -5 351 85 600 335 685 685 24 102 22 285 -5 395 -81 328 -333 584 -657
667 -92 24 -261 33 -350 20z"/>
</g>
</svg>
