<?xml version="1.0" standalone="no"?>
<!DOCTYPE svg PUBLIC "-//W3C//DTD SVG 20010904//EN"
 "http://www.w3.org/TR/2001/REC-SVG-20010904/DTD/svg10.dtd">
<svg version="1.0" xmlns="http://www.w3.org/2000/svg"
 width="2781.000000pt" height="2781.000000pt" viewBox="0 0 2781.000000 2781.000000"
 preserveAspectRatio="xMidYMid meet">
<metadata>
Created by potrace 1.11, written by Peter Selinger 2001-2013
</metadata>
<g transform="translate(0.000000,2781.000000) scale(0.100000,-0.100000)"
fill="#000000" stroke="none">
<path d="M15225 21180 c-1126 -77 -2083 -886 -2345 -1985 -53 -223 -65 -327
-65 -600 0 -286 13 -394 75 -641 49 -191 93 -311 185 -499 82 -168 153 -285
255 -419 578 -762 1517 -1147 2456 -1007 572 85 1107 361 1501 775 359 377
585 830 674 1350 27 155 37 520 20 692 -63 617 -331 1170 -777 1604 -449 437
-1011 687 -1641 730 -161 11 -176 11 -338 0z m431 -1349 c383 -78 701 -331
875 -695 240 -503 102 -1119 -333 -1480 -391 -324 -905 -385 -1353 -159 -218
109 -412 295 -533 511 -228 405 -208 900 54 1293 56 84 183 220 270 290 167
133 392 228 610 258 101 14 294 6 410 -18z"/>
<path d="M9936 20380 c-776 -75 -1438 -531 -1777 -1225 -108 -221 -163 -401
-200 -648 -23 -160 -25 -441 -5 -597 137 -1019 947 -1800 1970 -1899 800 -78
1578 297 2031 980 170 255 281 541 341 874 26 140 26 545 1 690 -40 230 -110
442 -210 640 -321 633 -928 1065 -1640 1170 -132 19 -390 27 -511 15z m418
-1300 c258 -69 468 -245 586 -491 64 -134 83 -221 83 -379 1 -109 -4 -151 -22
-220 -87 -327 -324 -564 -652 -652 -117 -31 -326 -31 -444 1 -381 103 -651
433 -672 821 -10 181 34 361 125 515 63 106 201 244 307 307 83 49 222 101
316 117 86 16 282 6 373 -19z"/>
<path d="M8508 15740 c-252 -43 -468 -228 -555 -475 l-28 -80 0 -2710 0 -2710
27 -80 c38 -112 91 -197 174 -279 82 -83 167 -136 279 -174 l80 -27 4455 -3
c4422 -2 4456 -2 4535 18 239 59 417 224 502 465 l28 80 3 2670 c3 3005 9
2753 -75 2925 -39 79 -60 109 -132 180 -92 92 -169 139 -296 182 l-70 23
-4440 1 c-2442 1 -4461 -2 -4487 -6z"/>
<path d="M20010 15149 c-25 -5 -62 -16 -82 -24 -21 -8 -384 -256 -808 -551
l-770 -535 2 -1576 3 -1575 771 -537 c796 -553 805 -559 925 -576 142 -20 326
73 406 206 68 114 63 -70 61 2510 l-3 2334 -32 68 c-63 133 -188 231 -327 256
-67 12 -83 12 -146 0z"/>
<path d="M11346 8899 c-139 -33 -283 -161 -345 -307 -115 -275 44 -610 326
-688 65 -18 135 -19 1633 -19 l1565 0 71 22 c299 94 437 434 298 729 -36 76
-129 173 -205 214 -119 63 -15 60 -1734 59 -904 -1 -1586 -5 -1609 -10z"/>
</g>
</svg>
